<?xml version="1.0" encoding="UTF-8" standalone="no"?>
<!-- Created with Inkscape (http://www.inkscape.org/) -->

<svg
   width="200mm"
   height="200mm"
   viewBox="0 0 200 200"
   version="1.1"
   id="svg1"
   xml:space="preserve"
   inkscape:version="1.4 (e7c3feb100, 2024-10-09)"
   sodipodi:docname="isologo_v2.svg"
   xmlns:inkscape="http://www.inkscape.org/namespaces/inkscape"
   xmlns:sodipodi="http://sodipodi.sourceforge.net/DTD/sodipodi-0.dtd"
   xmlns="http://www.w3.org/2000/svg"
   xmlns:svg="http://www.w3.org/2000/svg"><sodipodi:namedview
     id="namedview1"
     pagecolor="#ffffff"
     bordercolor="#000000"
     borderopacity="0.25"
     inkscape:showpageshadow="2"
     inkscape:pageopacity="0.0"
     inkscape:pagecheckerboard="0"
     inkscape:deskcolor="#d1d1d1"
     inkscape:document-units="mm"
     showguides="false"
     inkscape:zoom="1"
     inkscape:cx="841"
     inkscape:cy="319"
     inkscape:window-width="1920"
     inkscape:window-height="1131"
     inkscape:window-x="0"
     inkscape:window-y="0"
     inkscape:window-maximized="1"
     inkscape:current-layer="layer1" /><defs
     id="defs1"><inkscape:path-effect
       effect="fillet_chamfer"
       id="path-effect99"
       is_visible="true"
       lpeversion="1"
       nodesatellites_param="F,0,0,1,0,0,0,1 @ F,0,0,1,0,0,0,1 @ F,0,0,1,0,0,0,1 @ F,0,0,1,0,0,0,1 @ F,0,0,1,0,0,0,1 @ F,0,0,1,0,0,0,1 @ F,0,0,1,0,0,0,1 @ F,0,0,1,0,0,0,1 @ F,0,0,1,0,0,0,1 @ F,0,0,1,0,0,0,1 | F,0,0,1,0,0,0,1 @ F,0,0,1,0,0,0,1 | F,0,0,1,0,0,0,1 @ F,0,0,1,0,0,0,1 | F,0,0,1,0,0,0,1 @ F,0,0,1,0,0,0,1 | F,0,0,1,0,0,0,1 @ F,0,0,1,0,0,0,1 | F,0,0,1,0,0,0,1 @ F,0,0,1,0,0,0,1 @ F,0,0,1,0,0,0,1 @ F,0,0,1,0,0,0,1 @ F,0,0,1,0,0,0,1 @ F,0,0,1,0,0,0,1 @ F,0,0,1,0,0,0,1 @ F,0,0,1,0,0,0,1 | F,0,0,1,0,0,0,1 @ F,0,0,1,0,0,0,1 | F,0,0,1,0,0,0,1 @ F,0,0,1,0,0,0,1 | F,0,0,1,0,0,0,1 @ F,0,0,1,0,0,0,1 | F,0,0,1,0,0,0,1 @ F,0,0,1,0,0,0,1"
       radius="0"
       unit="px"
       method="auto"
       mode="F"
       chamfer_steps="1"
       flexible="false"
       use_knot_distance="true"
       apply_no_radius="true"
       apply_with_radius="true"
       only_selected="false"
       hide_knots="false" /><inkscape:path-effect
       effect="fillet_chamfer"
       id="path-effect99-1"
       is_visible="true"
       lpeversion="1"
       nodesatellites_param="F,0,0,1,0,0,0,1 @ F,0,0,1,0,0,0,1 @ F,0,0,1,0,0,0,1 @ F,0,0,1,0,0,0,1 @ F,0,0,1,0,0,0,1 @ F,0,0,1,0,0,0,1 @ F,0,0,1,0,0,0,1 @ F,0,0,1,0,0,0,1 @ F,0,0,1,0,0,0,1 @ F,0,0,1,0,0,0,1 | F,0,0,1,0,0,0,1 @ F,0,0,1,0,0,0,1 | F,0,0,1,0,0,0,1 @ F,0,0,1,0,0,0,1 | F,0,0,1,0,0,0,1 @ F,0,0,1,0,0,0,1 | F,0,0,1,0,0,0,1 @ F,0,0,1,0,0,0,1 | F,0,0,1,0,0,0,1 @ F,0,0,1,0,0,0,1 @ F,0,0,1,0,0,0,1 @ F,0,0,1,0,0,0,1 @ F,0,0,1,0,0,0,1 @ F,0,0,1,0,0,0,1 @ F,0,0,1,0,0,0,1 @ F,0,0,1,0,0,0,1 | F,0,0,1,0,0,0,1 @ F,0,0,1,0,0,0,1 | F,0,0,1,0,0,0,1 @ F,0,0,1,0,0,0,1 | F,0,0,1,0,0,0,1 @ F,0,0,1,0,0,0,1 | F,0,0,1,0,0,0,1 @ F,0,0,1,0,0,0,1"
       radius="0"
       unit="px"
       method="auto"
       mode="F"
       chamfer_steps="1"
       flexible="false"
       use_knot_distance="true"
       apply_no_radius="true"
       apply_with_radius="true"
       only_selected="false"
       hide_knots="false" /></defs><g
     inkscape:label="Capa 1"
     inkscape:groupmode="layer"
     id="layer1"><path
       id="path1"
       style="fill:#214f5f;stroke-width:0.264583"
       d="M 100.0001,0 A 100,100 0 0 0 0,100.0001 a 100,100 0 0 0 20.407023,60.11881 100,100 0 0 0 33.546273,28.38483 100,100 0 0 0 1.967322,1.07435 100,100 0 0 0 7.5861,3.26854 100,100 0 0 0 4.663798,1.73891 100,100 0 0 0 6.887435,2.06654 100,100 0 0 0 6.452319,1.40353 100,100 0 0 0 5.836853,1.03973 A 100,100 0 0 0 100.0001,200.0002 100,100 0 0 0 200.0002,100.0001 100,100 0 0 0 100.0001,0 Z m 0,15.000118 a 85,85 0 0 1 54.31296,19.950203 L 136.31364,52.94974 a 35.136255,13.14089 58.166578 0 0 -5.91746,-9.354468 35.136255,13.14089 58.166578 0 0 -15.13655,-15.371155 36.776897,25.681671 72.193909 0 0 -8.87388,-5.230688 25.681671,36.776897 17.806091 0 0 -5.94434,-1.236617 36.776897,25.681671 72.193909 0 0 -0.70693,-0.08268 36.776897,25.681671 72.193909 0 0 -0.33228,0.02015 25.681671,36.776897 17.806091 0 0 -0.33176,-0.02015 h -5.2e-4 a 25.681671,36.776897 17.806091 0 0 -0.70693,0.08268 36.776897,25.681671 72.193909 0 0 -5.943825,1.2361 A 25.681671,36.776897 17.806091 0 0 82.386702,29.185815 13.14089,35.136255 31.833422 0 0 68.617,43.595272 13.14089,35.136255 31.833422 0 0 56.368136,67.557633 a 44.96094,43.129064 0 0 0 -0.05529,0.173633 54.485989,34.360676 0 0 0 -11.396721,21.016289 54.485989,34.360676 0 0 0 14.798064,23.404775 72.246556,35 0 0 0 -20.306771,9.93738 35.259502,48.815624 0 0 0 -0.256832,0.18603 72.246556,35 0 0 0 -3.299024,2.7988 35.259502,48.815624 0 0 0 -2.132686,2.09496 72.246556,35 0 0 0 -0.846977,1.002 35.259502,48.815624 0 0 0 -7.516853,12.19719 A 85,85 0 0 1 15.000118,100.0001 85,85 0 0 1 100.0001,15.000118 Z m 65.04977,30.687016 A 85,85 0 0 1 185.00008,100.0001 85,85 0 0 1 174.64877,140.36301 35.259502,48.815624 0 0 0 164.79201,125.54996 72.246556,35 0 0 0 139.54135,111.85157 54.485989,34.360676 0 0 0 153.88828,88.747555 54.485989,34.360676 0 0 0 142.7732,67.96381 Z M 77.384424,74.821273 a 25.918692,12.843378 15 0 1 8.499739,1.495516 25.918692,12.843378 15 0 1 8.165393,2.98018 6.2536638,4.9861452 15 0 1 -0.114204,1.183907 6.2536638,4.9861452 15 0 1 -6.369121,3.386873 7.1092013,2.8643925 22.406925 0 1 -4.872571,-1.236617 7.1092013,2.8643925 22.406925 0 1 -4.797639,-3.442167 4.4669027,3.5615323 15 0 1 -1.067119,-3.291789 4.4669027,3.5615323 15 0 1 0.555522,-1.075903 z m 44.036076,0 a 3.5615323,4.4669027 75 0 1 0.55552,1.075903 3.5615323,4.4669027 75 0 1 -1.0666,3.291789 2.8643925,7.1092013 67.593075 0 1 -4.79764,3.442167 2.8643925,7.1092013 67.593075 0 1 -4.87309,1.236617 4.9861452,6.2536638 75 0 1 -6.36912,-3.386873 4.9861452,6.2536638 75 0 1 -0.11421,-1.183907 12.843378,25.918692 75 0 1 8.1654,-2.98018 12.843378,25.918692 75 0 1 8.49974,-1.495516 z m 7.78247,4.558378 a 30,35 0 0 1 0.19947,3.952213 A 30,35 0 0 1 99.40272,118.3318 30,35 0 0 1 69.402482,83.331864 30,35 0 0 1 69.63916,79.473702 c 1.70381,4.34687 6.20505,8.34631 12.22251,10.26449 6.74826,2.14243 12.215018,-2.622996 17.54105,-2.623096 5.32603,-10e-5 10.79192,4.765366 17.54001,2.623096 6.06083,-1.932 10.58495,-5.975351 12.26024,-10.358541 z m -25.19123,52.722879 c 0.52272,0.0277 1.01805,0.32952 1.28209,0.85059 0.1885,0.37197 0.92696,3.43743 1.4149,5.87251 0.31902,1.59206 0.85957,5.04077 0.99942,6.37739 0.3637,3.47616 0.41391,4.4363 0.41238,7.84965 -0.002,3.01946 -0.008,3.21439 -0.1974,5.49476 -0.27143,3.2704 -0.9518,7.20393 -1.78077,10.29704 -0.26554,0.9908 -0.43921,1.30478 -0.83871,1.51671 l -0.17002,0.0904 -0.0863,0.47439 c -0.11554,0.63436 -0.35632,1.90917 -0.81235,4.30155 -0.20779,1.09011 -0.42891,2.25304 -0.49092,2.58434 -0.0899,0.48023 -0.13303,0.62963 -0.21446,0.73638 -0.17836,0.23385 -0.51457,0.35133 -0.81546,0.28474 -0.41287,-0.0914 -0.65577,-0.37194 -0.65577,-0.75602 0,-0.0921 0.0874,-0.62496 0.1943,-1.18443 0.10691,-0.55947 0.24027,-1.28232 0.29663,-1.6061 0.0563,-0.3238 0.24425,-1.3393 0.41702,-2.25671 0.17277,-0.91742 0.3482,-1.88803 0.39016,-2.15698 0.042,-0.26895 0.0929,-0.54882 0.11317,-0.62218 0.0333,-0.12082 0.0262,-0.1427 -0.0775,-0.22996 -0.063,-0.053 -0.1714,-0.21145 -0.24081,-0.35243 -0.18636,-0.37853 -0.17423,-0.66865 0.062,-1.46503 0.43435,-1.46413 1.24021,-5.73833 1.53169,-8.12509 0.0895,-0.73282 0.24903,-2.55128 0.2961,-3.3755 0.11024,-1.93022 0.0888,-6.13866 -0.0413,-8.2026 -0.11691,-1.85389 -0.68857,-6.27821 -1.08055,-8.3597 -0.19896,-1.05652 -0.77215,-3.58167 -1.10433,-4.86688 -0.31634,-1.22397 -0.33985,-1.34202 -0.34003,-1.70739 -1.5e-4,-0.31492 0.0161,-0.42725 0.0816,-0.56896 0.12933,-0.27996 0.29925,-0.48473 0.52813,-0.63665 0.2898,-0.19236 0.61344,-0.27451 0.92708,-0.25787 z m -10.058818,0.0506 c 0.345148,0 0.420953,0.013 0.619083,0.10594 0.616319,0.28883 0.992225,0.96664 0.858863,1.54823 -0.02406,0.10492 -0.255253,1.10889 -0.513664,2.23138 -0.529316,2.29921 -0.603132,2.65504 -0.959115,4.61161 -0.588277,3.23334 -0.847275,5.26778 -1.004073,7.88892 -0.23865,3.98935 -0.19261,6.70537 0.177767,10.47895 0.101139,1.03047 0.456222,3.60183 0.624768,4.52324 0.05235,0.28631 0.132795,0.74981 0.178284,1.03043 0.217336,1.34068 0.493847,2.66616 0.769979,3.68918 0.160955,0.59632 0.178286,0.70042 0.16278,0.98133 -0.01875,0.33982 -0.122772,0.60319 -0.322977,0.81856 l -0.10387,0.11214 0.120923,0.72088 c 0.06654,0.39668 0.208683,1.15874 0.31626,1.69344 0.107569,0.5347 0.293536,1.50215 0.412894,2.14974 0.119366,0.64759 0.259266,1.38944 0.311093,1.64848 0.337432,1.68655 0.347819,1.81897 0.16278,2.09858 -0.160714,0.24285 -0.380194,0.36863 -0.667659,0.38292 -0.157446,0.007 -0.288098,-0.009 -0.377755,-0.0496 -0.164472,-0.0738 -0.302789,-0.19776 -0.374137,-0.33486 -0.05442,-0.10448 -1.159421,-5.72021 -1.51567,-7.70238 -0.04272,-0.23772 -0.06165,-0.27459 -0.168465,-0.32918 -0.317281,-0.16222 -0.579622,-0.46986 -0.705384,-0.8263 -0.07201,-0.2041 -0.496732,-1.98447 -0.783931,-3.28662 -0.583424,-2.64519 -1.030744,-5.88735 -1.239718,-8.98757 -0.170165,-2.52439 -0.170006,-6.4893 5.17e-4,-8.92917 0.247062,-3.53641 0.822674,-7.50504 1.645378,-11.34246 0.318384,-1.48508 0.853699,-3.73599 0.949296,-3.99149 0.111726,-0.29861 0.442669,-0.64349 0.772046,-0.80563 0.241661,-0.11898 0.288855,-0.12868 0.653707,-0.12868 z m -32.504476,24.03316 h 23.124686 a 1.6517543,1.6517543 0 0 1 1.651579,1.6521 v 9.9105 a 1.6517543,1.6517543 0 0 1 -1.651579,1.65158 H 61.448446 a 1.6517543,1.6517543 0 0 1 -1.651579,-1.65158 v -9.9105 a 1.6517543,1.6517543 0 0 1 1.651579,-1.6521 z m 0,1.6521 v 1.65158 6.60735 1.65157 h 1.651578 19.82153 1.651578 v -1.65157 -6.60735 -1.65158 h -1.651578 -19.82153 z m 2.837553,0.8723 h 2.235005 c 0.06985,0 0.163163,0.012 0.27957,0.0362 0.124178,0.0161 0.25202,0.0603 0.383956,0.13281 h 0.01137 c 0.263855,0.13689 0.473681,0.33452 0.628903,0.59221 0.155203,0.24965 0.232544,0.53138 0.232544,0.84543 v 4.96455 c 0,0.28991 -0.06961,0.55578 -0.20929,0.79737 -0.139693,0.24159 -0.325809,0.43485 -0.558622,0.57981 -0.232821,0.14499 -0.489045,0.21756 -0.768429,0.21756 h -2.235005 c -0.248334,0 -0.484971,-0.0606 -0.710035,-0.18139 l -0.01189,-0.0119 c -0.256099,-0.13689 -0.457682,-0.33018 -0.605131,-0.57981 -0.147491,-0.25771 -0.221175,-0.53175 -0.221175,-0.82166 v -4.96455 c 0,-0.29795 0.0696,-0.56766 0.209289,-0.80926 0.139692,-0.24159 0.32581,-0.43485 0.558622,-0.57981 0.240585,-0.14499 0.500938,-0.21755 0.780315,-0.21755 z m 6.623368,0 h 0.710551 c 0.147449,0 0.267521,0.0524 0.360701,0.15709 0.100847,0.10469 0.151412,0.23736 0.151412,0.39843 v 7.05435 c 0,0.15301 -0.05053,0.2862 -0.151412,0.39894 -0.09313,0.10466 -0.213252,0.1571 -0.360701,0.1571 H 71.29384 c -0.147457,0 -0.275307,-0.0524 -0.383956,-0.1571 -0.100855,-0.11274 -0.151412,-0.24593 -0.151412,-0.39894 v -5.49579 c 0,-0.0322 -0.01591,-0.0525 -0.04703,-0.0605 -0.02334,-0.0162 -0.04232,-0.0162 -0.05788,0 l -0.174667,0.18086 c -0.09312,0.11268 -0.217365,0.1695 -0.372587,0.1695 -0.0776,0 -0.147199,-0.0164 -0.209289,-0.0486 -0.100884,-0.0403 -0.178761,-0.10856 -0.233061,-0.20516 -0.0544,-0.0966 -0.08165,-0.19761 -0.08165,-0.3023 v -0.47078 c 0,-0.15301 0.05053,-0.2862 0.151412,-0.39894 l 0.791683,-0.80925 c 0.05432,-0.0483 0.112576,-0.0887 0.174666,-0.12093 0.06208,-0.0323 0.13165,-0.048 0.20929,-0.048 z m 4.528406,0 h 2.235005 c 0.06984,0 0.163164,0.012 0.27957,0.0362 0.124179,0.0161 0.252021,0.0603 0.383956,0.13281 h 0.01188 c 0.263855,0.13689 0.47318,0.33452 0.628386,0.59221 0.155202,0.24965 0.23306,0.53138 0.23306,0.84543 v 4.96455 c 0,0.28991 -0.07011,0.55578 -0.209806,0.79737 -0.139684,0.24159 -0.325801,0.43485 -0.558622,0.57981 -0.23282,0.14499 -0.489052,0.21756 -0.768429,0.21756 h -2.235005 c -0.248341,0 -0.484979,-0.0606 -0.710035,-0.18139 l -0.01137,-0.0119 c -0.256099,-0.13689 -0.458191,-0.33018 -0.605648,-0.57981 -0.147406,-0.25771 -0.221175,-0.53175 -0.221175,-0.82166 v -4.96455 c 0,-0.29795 0.07011,-0.56766 0.209806,-0.80926 0.139692,-0.24159 0.325801,-0.43485 0.558622,-0.57981 0.240577,-0.14499 0.500414,-0.21755 0.779798,-0.21755 z m 6.623885,0 h 0.710034 c 0.147449,0 0.267521,0.0524 0.360701,0.15709 0.100847,0.10469 0.151412,0.23736 0.151412,0.39843 v 7.05435 c 0,0.15301 -0.05053,0.2862 -0.151412,0.39894 -0.09313,0.10466 -0.213252,0.1571 -0.360701,0.1571 h -0.326078 c -0.147457,0 -0.275307,-0.0524 -0.383956,-0.1571 -0.100847,-0.11274 -0.151412,-0.24593 -0.151412,-0.39894 v -5.49579 c 0,-0.0322 -0.01539,-0.0525 -0.04651,-0.0605 -0.02334,-0.0162 -0.04283,-0.0162 -0.05839,0 l -0.17415,0.18086 c -0.09313,0.11268 -0.217366,0.1695 -0.372587,0.1695 -0.0776,0 -0.147716,-0.0164 -0.209806,-0.0486 -0.100885,-0.0403 -0.178761,-0.10856 -0.233061,-0.20516 -0.05439,-0.0966 -0.08113,-0.19761 -0.08113,-0.3023 v -0.47078 c 0,-0.15301 0.05053,-0.2862 0.151412,-0.39894 l 0.791683,-0.80925 c 0.05433,-0.0483 0.112069,-0.0887 0.174149,-0.12093 0.06208,-0.0323 0.132157,-0.048 0.209807,-0.048 z m -17.775659,1.43712 c -0.03878,0 -0.07805,0.0164 -0.116789,0.0486 -0.03104,0.0322 -0.04651,0.0726 -0.04651,0.12093 v 3.14037 c 0,0.0323 0.01554,0.0525 0.04651,0.0605 0.03112,0.008 0.05472,-0.004 0.07028,-0.0362 l 1.652612,-3.18895 c 0.01556,-0.0402 0.01556,-0.0725 0,-0.0966 -0.01544,-0.0323 -0.04239,-0.0481 -0.08113,-0.0481 h -1.524971 z m 11.151774,0 c -0.03877,0 -0.07752,0.0164 -0.116272,0.0486 -0.03104,0.0322 -0.04651,0.0726 -0.04651,0.12093 v 3.14037 c 0,0.0323 0.01555,0.0525 0.04651,0.0605 0.03112,0.008 0.0542,-0.004 0.06976,-0.0362 l 1.653129,-3.18895 c 0.01556,-0.0402 0.01556,-0.0725 0,-0.0966 -0.01557,-0.0323 -0.04291,-0.0481 -0.08165,-0.0481 h -1.524971 z m -8.811866,1.83658 c -0.02334,-0.008 -0.04694,0.004 -0.07028,0.0362 l -1.687752,3.28559 c -0.0078,0.0322 -0.0042,0.0644 0.01137,0.0966 0.01556,0.0323 0.03932,0.0481 0.07028,0.0481 h 1.57148 c 0.03877,0 0.07378,-0.016 0.104903,-0.0481 0.03112,-0.0403 0.04599,-0.0807 0.04599,-0.12092 v -3.22513 c 0,-0.0404 -0.01503,-0.0643 -0.04599,-0.0723 z m 11.151774,0 c -0.02334,-0.008 -0.04642,0.004 -0.06976,0.0362 l -1.688269,3.28559 c -0.0078,0.0322 -0.0037,0.0644 0.01189,0.0966 0.01556,0.0323 0.0388,0.0481 0.06976,0.0481 h 1.57148 c 0.03876,0 0.07378,-0.016 0.104903,-0.0481 0.03104,-0.0403 0.04651,-0.0807 0.04651,-0.12092 v -3.22513 c 0,-0.0404 -0.01554,-0.0643 -0.04651,-0.0723 z" /><path
       id="path1-2"
       style="fill:#214f5f;stroke-width:0.264583"
       d="M 204.99989,0 V 100.0001 A 100,100 0 0 1 304.99999,0 Z m 100.0001,0 a 100,100 0 0 1 100.0001,100.0001 V 0 Z m 100.0001,100.0001 a 100,100 0 0 1 -100.0001,100.0001 h 100.0001 z m -100.0001,100.0001 a 100,100 0 0 1 -12.65298,-0.90486 100,100 0 0 1 -5.83685,-1.03973 100,100 0 0 1 -6.45232,-1.40353 100,100 0 0 1 -6.88743,-2.06654 100,100 0 0 1 -4.6638,-1.73891 100,100 0 0 1 -7.5861,-3.26854 100,100 0 0 1 -1.96732,-1.07435 100,100 0 0 1 -33.54628,-28.38483 100,100 0 0 1 -20.40702,-60.11881 v 100.0001 z m 0,-185.000082 a 85,85 0 0 0 -84.99998,84.999982 85,85 0 0 0 10.35492,40.36859 35.259502,48.815624 0 0 1 7.51686,-12.19719 72.246556,35 0 0 1 0.84697,-1.002 35.259502,48.815624 0 0 1 2.13269,-2.09496 72.246556,35 0 0 1 3.29902,-2.7988 35.259502,48.815624 0 0 1 0.25683,-0.18603 72.246556,35 0 0 1 20.30677,-9.93738 54.485989,34.360676 0 0 1 -14.79806,-23.404775 54.485989,34.360676 0 0 1 11.39672,-21.016289 44.96094,43.129064 0 0 1 0.0553,-0.173633 13.14089,35.136255 31.833422 0 1 12.24886,-23.962361 13.14089,35.136255 31.833422 0 1 13.7697,-14.409457 25.681671,36.776897 17.806091 0 1 10.03247,-6.192903 36.776897,25.681671 72.193909 0 1 5.94382,-1.2361 25.681671,36.776897 17.806091 0 1 0.70693,-0.08268 h 5.2e-4 a 25.681671,36.776897 17.806091 0 1 0.33176,0.02015 36.776897,25.681671 72.193909 0 1 0.33228,-0.02015 36.776897,25.681671 72.193909 0 1 0.70693,0.08268 25.681671,36.776897 17.806091 0 1 5.94434,1.236617 36.776897,25.681671 72.193909 0 1 8.87388,5.230688 35.136255,13.14089 58.166578 0 1 15.13655,15.371155 35.136255,13.14089 58.166578 0 1 5.91746,9.354468 L 359.31295,34.950321 A 85,85 0 0 0 304.99999,15.000118 Z m 65.04977,30.687016 -22.27667,22.276676 a 54.485989,34.360676 0 0 1 11.11508,20.783745 54.485989,34.360676 0 0 1 -14.34693,23.104015 72.246556,35 0 0 1 25.25066,13.69839 35.259502,48.815624 0 0 1 9.85676,14.81305 85,85 0 0 0 10.35131,-40.36291 85,85 0 0 0 -19.95021,-54.312966 z m -87.66545,29.134139 a 4.4669027,3.5615323 15 0 0 -0.55552,1.075903 4.4669027,3.5615323 15 0 0 1.06712,3.291789 7.1092013,2.8643925 22.406925 0 0 4.79764,3.442167 7.1092013,2.8643925 22.406925 0 0 4.87257,1.236617 6.2536638,4.9861452 15 0 0 6.36912,-3.386873 6.2536638,4.9861452 15 0 0 0.11421,-1.183907 25.918692,12.843378 15 0 0 -8.1654,-2.98018 25.918692,12.843378 15 0 0 -8.49974,-1.495516 z m 44.03608,0 a 12.843378,25.918692 75 0 0 -8.49974,1.495516 12.843378,25.918692 75 0 0 -8.1654,2.98018 4.9861452,6.2536638 75 0 0 0.11421,1.183907 4.9861452,6.2536638 75 0 0 6.36912,3.386873 2.8643925,7.1092013 67.593075 0 0 4.87309,-1.236617 2.8643925,7.1092013 67.593075 0 0 4.79764,-3.442167 3.5615323,4.4669027 75 0 0 1.0666,-3.291789 3.5615323,4.4669027 75 0 0 -0.55552,-1.075903 z m 7.78247,4.558378 c -1.67529,4.38319 -6.19941,8.426541 -12.26024,10.358541 -6.74809,2.14227 -12.21398,-2.623196 -17.54001,-2.623096 -5.32604,1e-4 -10.79279,4.765526 -17.54105,2.623096 -6.01746,-1.91818 -10.5187,-5.91762 -12.22251,-10.26449 a 30,35 0 0 0 -0.23668,3.858162 30,35 0 0 0 30.00024,34.999936 30,35 0 0 0 29.99972,-34.999936 30,35 0 0 0 -0.19947,-3.952213 z m -25.19123,52.722879 c -0.31364,-0.0166 -0.63728,0.0655 -0.92708,0.25787 -0.22888,0.15192 -0.3988,0.35669 -0.52813,0.63665 -0.0655,0.14171 -0.0818,0.25404 -0.0817,0.56896 1.8e-4,0.36537 0.0237,0.48342 0.34003,1.70739 0.33218,1.28521 0.90537,3.81036 1.10433,4.86688 0.39198,2.08149 0.96364,6.50581 1.08055,8.3597 0.1301,2.06394 0.15158,6.27238 0.0413,8.2026 -0.0471,0.82422 -0.2066,2.64268 -0.2961,3.3755 -0.29148,2.38676 -1.09734,6.66096 -1.53169,8.12509 -0.23623,0.79638 -0.24837,1.0865 -0.062,1.46503 0.0694,0.14098 0.17781,0.29943 0.24081,0.35243 0.1037,0.0873 0.11081,0.10914 0.0775,0.22996 -0.0203,0.0734 -0.0712,0.35323 -0.11317,0.62218 -0.042,0.26895 -0.21738,1.23956 -0.39015,2.15698 -0.17277,0.91741 -0.36073,1.93291 -0.41703,2.25671 -0.0564,0.32378 -0.18972,1.04663 -0.29663,1.6061 -0.1069,0.55947 -0.1943,1.09233 -0.1943,1.18443 0,0.38408 0.2429,0.66462 0.65577,0.75602 0.30089,0.0666 0.6371,-0.0509 0.81546,-0.28474 0.0814,-0.10675 0.12456,-0.25615 0.21446,-0.73638 0.062,-0.3313 0.28313,-1.49423 0.49092,-2.58434 0.45603,-2.39238 0.69681,-3.66719 0.81235,-4.30155 l 0.0863,-0.47439 0.17002,-0.0904 c 0.3995,-0.21193 0.57317,-0.52591 0.83871,-1.51671 0.82897,-3.09311 1.50934,-7.02664 1.78077,-10.29704 0.1894,-2.28037 0.1954,-2.4753 0.1974,-5.49476 0.002,-3.41335 -0.0487,-4.37349 -0.41238,-7.84965 -0.13985,-1.33662 -0.6804,-4.78533 -0.99942,-6.37739 -0.48794,-2.43508 -1.2264,-5.50054 -1.4149,-5.87251 -0.26404,-0.52107 -0.75937,-0.82289 -1.28209,-0.85059 z m -10.05882,0.0506 c -0.36485,0 -0.41205,0.01 -0.65371,0.12868 -0.32938,0.16214 -0.66032,0.50702 -0.77204,0.80563 -0.0956,0.2555 -0.63092,2.50641 -0.9493,3.99149 -0.8227,3.83742 -1.39831,7.80605 -1.64537,11.34246 -0.17052,2.43987 -0.17069,6.40478 -5.2e-4,8.92917 0.20897,3.10022 0.6563,6.34238 1.23972,8.98757 0.2872,1.30215 0.71193,3.08252 0.78393,3.28662 0.12577,0.35644 0.3881,0.66408 0.70538,0.8263 0.10686,0.0546 0.12577,0.0915 0.16847,0.32918 0.35625,1.98217 1.46127,7.5979 1.51567,7.70238 0.0713,0.1371 0.20966,0.26106 0.37413,0.33486 0.0897,0.0406 0.22032,0.0566 0.37776,0.0496 0.28747,-0.0143 0.50695,-0.14007 0.66766,-0.38292 0.18504,-0.27961 0.17466,-0.41203 -0.16278,-2.09858 -0.0518,-0.25904 -0.19173,-1.00089 -0.3111,-1.64848 -0.11936,-0.64759 -0.30532,-1.61504 -0.41289,-2.14974 -0.10758,-0.5347 -0.24976,-1.29676 -0.31626,-1.69344 l -0.12092,-0.72088 0.10387,-0.11214 c 0.20021,-0.21537 0.30427,-0.47874 0.32297,-0.81856 0.0155,-0.28091 -0.002,-0.38501 -0.16278,-0.98133 -0.27613,-1.02302 -0.55264,-2.3485 -0.76998,-3.68918 -0.0455,-0.28062 -0.12588,-0.74412 -0.17828,-1.03043 -0.16855,-0.92141 -0.52363,-3.49277 -0.62477,-4.52324 -0.37038,-3.77358 -0.41641,-6.4896 -0.17776,-10.47895 0.1568,-2.62114 0.41579,-4.65558 1.00407,-7.88892 0.35598,-1.95657 0.42979,-2.3124 0.95911,-4.61161 0.25841,-1.12249 0.48957,-2.12646 0.51367,-2.23138 0.13337,-0.58159 -0.24254,-1.2594 -0.85886,-1.54823 -0.19813,-0.0929 -0.27394,-0.10594 -0.61909,-0.10594 z m -32.50447,24.03316 a 1.6517543,1.6517543 0 0 0 -1.65158,1.6521 v 9.9105 a 1.6517543,1.6517543 0 0 0 1.65158,1.65158 h 23.12468 a 1.6517543,1.6517543 0 0 0 1.65158,-1.65158 v -9.9105 a 1.6517543,1.6517543 0 0 0 -1.65158,-1.6521 z m 0,1.6521 h 1.65157 19.82153 1.65158 v 1.65158 6.60735 1.65157 h -1.65158 -19.82153 -1.65157 v -1.65157 -6.60735 z m 2.83755,0.8723 c -0.27937,0 -0.53974,0.0726 -0.78032,0.21755 -0.23281,0.14496 -0.41893,0.33822 -0.55862,0.57981 -0.13969,0.2416 -0.20929,0.51131 -0.20929,0.80926 v 4.96455 c 0,0.28991 0.0737,0.56395 0.22118,0.82166 0.14745,0.24963 0.34903,0.44292 0.60513,0.57981 l 0.0119,0.0119 c 0.22507,0.12079 0.4617,0.18139 0.71004,0.18139 h 2.235 c 0.27939,0 0.53561,-0.0726 0.76843,-0.21756 0.23281,-0.14496 0.41894,-0.33822 0.55863,-0.57981 0.13969,-0.24159 0.20928,-0.50746 0.20928,-0.79737 v -4.96455 c 0,-0.31405 -0.0773,-0.59578 -0.23254,-0.84543 -0.15522,-0.25769 -0.36505,-0.45532 -0.6289,-0.59221 h -0.0114 c -0.13194,-0.0725 -0.25978,-0.11671 -0.38396,-0.13281 -0.11641,-0.0242 -0.20967,-0.0362 -0.27957,-0.0362 z m 6.62337,0 c -0.0776,0 -0.14719,0.0152 -0.20929,0.0475 -0.0621,0.0322 -0.12037,0.0726 -0.17467,0.12092 l -0.79168,0.80925 c -0.10091,0.11274 -0.15141,0.24594 -0.15141,0.39895 v 0.47077 c 0,0.10469 0.0272,0.20571 0.0816,0.30231 0.0543,0.0966 0.13218,0.16485 0.23307,0.20515 0.0621,0.0322 0.13169,0.0486 0.20929,0.0486 0.15522,0 0.27948,-0.0568 0.37258,-0.1695 l 0.17467,-0.18087 c 0.0156,-0.0162 0.0346,-0.0162 0.0579,0 0.0311,0.008 0.047,0.0288 0.047,0.061 v 5.49579 c 0,0.15301 0.0506,0.2862 0.15141,0.39894 0.10865,0.1047 0.2365,0.1571 0.38396,0.1571 h 0.32608 c 0.14745,0 0.2676,-0.0524 0.3607,-0.1571 0.10091,-0.11274 0.15141,-0.24593 0.15141,-0.39894 v -7.05435 c 0,-0.16107 -0.0506,-0.29374 -0.15141,-0.39843 -0.0932,-0.10469 -0.21325,-0.15709 -0.3607,-0.15709 z m 4.5284,0 c -0.27938,0 -0.53922,0.0726 -0.77979,0.21755 -0.23283,0.14496 -0.41894,0.33822 -0.55863,0.57981 -0.1397,0.2416 -0.2098,0.51131 -0.2098,0.80926 v 4.96455 c 0,0.28991 0.0738,0.56395 0.22117,0.82166 0.14746,0.24963 0.34955,0.44292 0.60565,0.57981 l 0.0114,0.0119 c 0.22506,0.12079 0.46169,0.18139 0.71003,0.18139 h 2.23501 c 0.27938,0 0.53561,-0.0726 0.76843,-0.21756 0.23282,-0.14496 0.41894,-0.33822 0.55862,-0.57981 0.13971,-0.24159 0.20981,-0.50746 0.20981,-0.79737 v -4.96455 c 0,-0.31405 -0.0779,-0.59578 -0.23307,-0.84543 -0.15521,-0.25769 -0.36452,-0.45532 -0.62838,-0.59221 h -0.0119 c -0.13193,-0.0725 -0.25977,-0.11671 -0.38395,-0.13281 -0.1164,-0.0242 -0.20977,-0.0362 -0.27957,-0.0362 z m 6.62389,0 c -0.0777,0 -0.14771,0.0152 -0.20981,0.0475 -0.0621,0.0322 -0.11985,0.0726 -0.17415,0.12092 l -0.79168,0.80925 c -0.10091,0.11274 -0.15141,0.24594 -0.15141,0.39895 v 0.47077 c 0,0.10469 0.0267,0.20571 0.0811,0.30231 0.0543,0.0966 0.13218,0.16485 0.23306,0.20515 0.0621,0.0322 0.13221,0.0486 0.20981,0.0486 0.15522,0 0.27948,-0.0568 0.37258,-0.1695 l 0.17415,-0.18087 c 0.0156,-0.0162 0.0351,-0.0162 0.0584,0 0.0311,0.008 0.0465,0.0288 0.0465,0.061 v 5.49579 c 0,0.15301 0.0506,0.2862 0.15141,0.39894 0.10865,0.1047 0.23649,0.1571 0.38395,0.1571 h 0.32608 c 0.14745,0 0.2676,-0.0524 0.3607,-0.1571 0.10091,-0.11274 0.15142,-0.24593 0.15142,-0.39894 v -7.05435 c 0,-0.16107 -0.0506,-0.29374 -0.15142,-0.39843 -0.0932,-0.10469 -0.21325,-0.15709 -0.3607,-0.15709 z m -17.77566,1.43712 v 5.1e-4 h 1.52497 c 0.0387,0 0.0657,0.0158 0.0811,0.0481 0.0156,0.0241 0.0156,0.0564 0,0.0966 l -1.65261,3.18895 c -0.0156,0.0322 -0.0392,0.0442 -0.0703,0.0362 -0.031,-0.008 -0.0465,-0.0282 -0.0465,-0.0605 v -3.14037 c 0,-0.0483 0.0155,-0.0887 0.0465,-0.12093 0.0387,-0.0322 0.078,-0.0486 0.11679,-0.0486 z m 11.15177,0 v 5.1e-4 h 1.52497 c 0.0388,0 0.0661,0.0158 0.0817,0.0481 0.0156,0.0241 0.0156,0.0564 0,0.0966 l -1.65313,3.18895 c -0.0156,0.0322 -0.0387,0.0442 -0.0698,0.0362 -0.0309,-0.008 -0.0465,-0.0282 -0.0465,-0.0605 v -3.14037 c 0,-0.0483 0.0155,-0.0887 0.0465,-0.12093 0.0388,-0.0322 0.0775,-0.0486 0.11627,-0.0486 z m -8.81186,1.83658 c 0.031,0.008 0.046,0.0319 0.046,0.0723 v 3.22513 c 0,0.0402 -0.0149,0.0806 -0.046,0.12092 -0.0311,0.0321 -0.0661,0.0481 -0.10491,0.0481 h -1.57148 c -0.031,0 -0.0547,-0.0158 -0.0703,-0.0481 -0.0154,-0.0322 -0.0194,-0.0644 -0.0114,-0.0966 l 1.68775,-3.28559 c 0.0234,-0.0322 0.047,-0.0442 0.0703,-0.0362 z m 11.15177,0 c 0.031,0.008 0.0465,0.0319 0.0465,0.0723 v 3.22513 c 0,0.0402 -0.0155,0.0806 -0.0465,0.12092 -0.0311,0.0321 -0.0661,0.0481 -0.1049,0.0481 h -1.57148 c -0.031,0 -0.0542,-0.0158 -0.0698,-0.0481 -0.0159,-0.0322 -0.0199,-0.0644 -0.0119,-0.0966 l 1.68827,-3.28559 c 0.0234,-0.0322 0.0465,-0.0442 0.0698,-0.0362 z" /></g></svg>
