<?xml version="1.0" encoding="UTF-8" standalone="no"?>
<!-- Created with Inkscape (http://www.inkscape.org/) -->

<svg
   width="100mm"
   height="100mm"
   viewBox="0 0 100 100"
   version="1.1"
   id="svg1"
   xml:space="preserve"
   inkscape:version="1.4.2 (f4327f4, 2025-05-13)"
   sodipodi:docname="kidIcon.svg"
   xmlns:inkscape="http://www.inkscape.org/namespaces/inkscape"
   xmlns:sodipodi="http://sodipodi.sourceforge.net/DTD/sodipodi-0.dtd"
   xmlns="http://www.w3.org/2000/svg"
   xmlns:svg="http://www.w3.org/2000/svg"><sodipodi:namedview
     id="namedview1"
     pagecolor="#ffffff"
     bordercolor="#000000"
     borderopacity="0.25"
     inkscape:showpageshadow="2"
     inkscape:pageopacity="0.0"
     inkscape:pagecheckerboard="0"
     inkscape:deskcolor="#d1d1d1"
     inkscape:document-units="mm"
     showgrid="false"
     inkscape:zoom="1"
     inkscape:cx="20.5"
     inkscape:cy="176.5"
     inkscape:window-width="1920"
     inkscape:window-height="1094"
     inkscape:window-x="-11"
     inkscape:window-y="-11"
     inkscape:window-maximized="1"
     inkscape:current-layer="layer1" /><defs
     id="defs1" /><g
     inkscape:label="Capa 1"
     inkscape:groupmode="layer"
     id="layer1"><path
       id="path1"
       style="fill:#025166;stroke:none;stroke-width:0.907309"
       d="M 53.99393,5.6845002e-4 C 52.7064,0.03839845 51.42683,1.9431026 50.75501,2.7739056 48.21366,5.9166501 46.08616,9.677681 46.00072,13.816617 H 45.76065 C 45.35474,10.804686 44.22985,7.5315677 42.28825,5.174495 41.69448,4.4536741 40.61489,3.0575687 39.529447,3.259181 38.396154,3.4697013 37.867909,5.2481362 37.417204,6.1347307 35.930759,9.0587493 34.032813,11.888878 33.757717,15.25697 31.871738,13.07751 28.758823,6.8589813 25.129659,7.6608867 24.001747,7.9101183 24.139493,9.319175 24.017042,10.215733 c -0.395169,2.893543 -1.000378,5.297941 -2.32182,7.921946 -2.168088,4.305207 -5.128575,8.117226 -6.735248,12.723123 -2.784559,7.982604 -1.704104,16.54077 -0.647034,24.726071 -2.560227,0.193114 -3.30904,3.134334 -3.65996,5.281296 -0.7944307,4.860402 1.633435,11.368045 4.320123,15.363772 2.970939,4.418468 5.938648,9.349317 9.68394,13.193864 7.198073,7.388844 17.235607,10.691245 27.345147,10.571032 9.44994,-0.11238 18.92744,-5.071009 25.1654,-12.002007 2.3939,-2.659872 3.84392,-5.688887 5.75766,-8.642122 0.92452,-1.426698 2.16663,-2.55766 2.97777,-4.081002 2.22337,-4.175538 4.50818,-9.823749 3.64073,-14.643595 -0.40245,-2.236135 -1.32101,-4.956462 -3.93331,-5.041238 1.83167,-7.43494 1.39008,-16.302792 -1.12715,-23.525776 -1.08673,-3.118305 -2.96014,-5.834352 -4.13773,-8.882181 -0.85823,-2.221219 -0.55568,-4.194673 -0.49981,-6.481592 0.0193,-0.792411 0.21957,-2.123403 -0.55326,-2.634084 -1.85657,-1.226815 -6.74017,1.919652 -8.32565,2.874143 -0.21348,-2.444956 -1.37517,-4.701018 -1.43659,-7.2017682 -0.0269,-1.0971157 0.21777,-2.8418791 -0.65876,-3.6960637 -0.96373,-0.9391369 -2.56522,0.2514001 -3.426,0.7675322 -2.63046,1.577233 -5.13078,3.7230817 -5.2813,7.0095337 H 59.68408 C 59.528,10.190502 58.48478,6.1720934 56.70163,3.0139646 56.16757,2.0680882 55.53821,0.39116245 54.3934,0.05214355 c -0.1327,-0.039297 -0.26627,-0.055488 -0.39947,-0.0515751 z M 28.964039,46.602011 c 1.535702,-0.02491 3.068919,-0.0041 4.553613,0.171135 10.276738,1.212574 21.123358,0.420748 31.447718,0.167854 4.82892,-0.118301 9.36387,-0.686976 14.16348,0.24381 v 3.360825 c -8.18544,-1.034551 -16.48995,0.240059 -24.72607,0.240059 -11.08789,0 -22.321998,-1.111913 -33.368189,-0.240059 0,-0.850433 -0.311363,-2.480648 0.246623,-3.183594 0.600712,-0.756777 2.257502,-0.653217 3.114202,-0.657349 1.49474,-0.0072 3.03292,-0.07778 4.568623,-0.102681 z m 4.853687,10.628702 c 2.324473,0.05033 4.85718,0.580917 6.661636,1.715578 3.243748,2.039739 0.072,4.133896 -2.400585,4.490321 -2.84475,0.410082 -5.908225,-0.08569 -8.402065,-1.531782 -3.815989,-2.21278 -1.168369,-4.189515 1.920475,-4.569091 0.693864,-0.08527 1.445715,-0.1218 2.220539,-0.105026 z m 33.388354,0.05299 c 2.24468,0.06232 5.45782,0.565466 5.28223,2.393557 -0.26303,2.738406 -5.16698,3.746232 -7.28288,4.002701 -1.58528,0.192148 -7.73111,-0.599445 -6.86371,-3.290964 0.77695,-2.410846 5.04345,-2.806832 7.10377,-3.05325 0.37157,-0.04444 1.01236,-0.07282 1.76059,-0.05204 z m -17.36442,9.599076 c 2.37339,-0.04868 4.62302,1.370521 6.72165,2.313849 2.31412,1.040207 4.68787,1.624969 7.20177,1.925629 6.20799,0.742478 11.51434,-1.954435 17.28424,-3.53243 0,16.641107 -17.06017,29.149241 -32.88807,28.065328 -10.90444,-0.74676 -21.200079,-7.511751 -26.106878,-17.262681 -1.771984,-3.521323 -2.940253,-7.091204 -2.940253,-11.04271 5.687279,2.992414 13.760505,5.242733 20.164947,3.563375 3.558164,-0.933012 6.838984,-3.953998 10.562594,-4.030365 z" /></g></svg>
