<?xml version="1.0" encoding="UTF-8" standalone="no"?>
<!-- Created with Inkscape (http://www.inkscape.org/) -->

<svg
   width="100mm"
   height="100mm"
   viewBox="0 0 100 100"
   version="1.1"
   id="svg1"
   xml:space="preserve"
   inkscape:version="1.4.2 (f4327f4, 2025-05-13)"
   sodipodi:docname="carceleroIcon.svg"
   xmlns:inkscape="http://www.inkscape.org/namespaces/inkscape"
   xmlns:sodipodi="http://sodipodi.sourceforge.net/DTD/sodipodi-0.dtd"
   xmlns="http://www.w3.org/2000/svg"
   xmlns:svg="http://www.w3.org/2000/svg"><sodipodi:namedview
     id="namedview1"
     pagecolor="#ffffff"
     bordercolor="#000000"
     borderopacity="0.25"
     inkscape:showpageshadow="2"
     inkscape:pageopacity="0.0"
     inkscape:pagecheckerboard="0"
     inkscape:deskcolor="#d1d1d1"
     inkscape:document-units="mm"
     inkscape:zoom="0.51213161"
     inkscape:cx="901.13555"
     inkscape:cy="799.59915"
     inkscape:window-width="1920"
     inkscape:window-height="1094"
     inkscape:window-x="-11"
     inkscape:window-y="-11"
     inkscape:window-maximized="1"
     inkscape:current-layer="layer1" /><defs
     id="defs1" /><g
     inkscape:label="Capa 1"
     inkscape:groupmode="layer"
     id="layer1"><path
       id="path15"
       style="fill:#084a60;stroke:none;stroke-width:1.1098"
       d="m 32.302133,0.01905075 c -1.691786,0.08233 -3.217292,0.440534 -4.395907,1.27719895 -3.999943,2.8394834 -5.575567,10.3220583 -6.882042,14.7837773 -0.487246,1.663974 -0.93061,4.847816 -2.313517,5.990242 -1.087912,0.898714 -3.26438,0.886595 -4.609244,1.181989 -4.1165599,0.904241 -12.4194969,2.186945 -13.90287487,6.922195 -0.96549,3.082073 1.77607597,4.979005 4.21295697,6.131319 5.525237,2.612707 12.2317089,3.316829 18.2052929,4.318488 18.072548,3.030468 37.151468,3.52395 55.203178,0.06366 6.23343,-1.194897 12.769703,-2.133541 18.498933,-5.007261 4.170361,-2.09178 5.241711,-6.131686 0.8809,-8.78722 -4.77708,-2.909068 -11.214543,-4.211204 -16.737133,-4.647099 -0.72265,-5.362197 -2.91799,-11.271179 -5.22117,-16.1498709 -0.90055,-1.907586 -1.8867,-4.138179 -3.88148,-5.11851835 -3.15487,-1.550465 -7.26333,-0.314628 -10.57082,0.0814401 -5.04561,0.6041184 -10.18979,0.3389434 -15.26896,0.3389434 -3.03098,0 -7.51642,-1.20178865 -11.47753,-1.37698165 -0.59416,-0.02628 -1.17665,-0.02974 -1.740583,-0.0023 z M 16.156857,43.094336 c 0.0022,3.716667 0.492273,7.445552 0.583254,11.158091 0.05294,2.159388 -0.438725,4.961852 0.470276,6.993302 0.859383,1.92059 4.221736,3.07226 5.993683,3.94284 5.637548,2.76974 12.142296,2.93721 18.205306,1.74805 3.27922,-0.6432 6.90077,-2.31375 10.27718,-2.05889 3.20095,0.24163 6.26787,1.53323 9.39628,2.16269 5.96808,1.20081 11.88913,0.61911 17.32441,-2.14548 1.66258,-0.84567 3.90135,-1.95171 5.06748,-3.4525 0.96656,-1.24396 0.51156,-3.651035 0.51156,-5.134579 V 43.094336 c -9.37581,1.2107 -18.40752,3.096634 -27.89522,3.512142 -13.61605,0.596294 -26.528257,-1.808903 -39.934209,-3.512142 z m 9.102646,9.396287 c 4.405141,0 8.696843,0.150933 12.919893,1.57255 1.34193,0.451743 4.02585,1.262561 3.67272,3.126743 -0.51506,2.719013 -3.6325,2.641553 -5.72815,2.641553 -5.736145,0 -8.984555,-1.783879 -10.864463,-7.340846 z m 50.211393,0 c -0.51202,5.863796 -5.4718,7.400356 -10.57082,7.339696 -1.65066,-0.0196 -4.59854,-0.0885 -5.69546,-1.53355 -2.05614,-2.70869 3.39504,-4.346329 5.1082,-4.784732 1.43849,-0.36812 2.9312,-0.576585 4.40451,-0.742122 2.26372,-0.25431 4.47511,-0.279292 6.75357,-0.279292 z M 18.21229,66.878689 c 2.021674,10.42504 5.820299,20.86016 14.975326,27.088867 2.44336,1.66237 5.09727,2.92356 7.8616,3.78972 h 10e-4 l 15.24487,0.89752 c 5.282,-0.97625 10.32457,-3.28875 14.47753,-6.90211 6.57644,-5.721937 11.33045,-16.200047 12.03899,-24.873997 -4.47625,1.88288 -8.08361,4.89958 -12.91989,6.24144 -12.83221,3.56039 -28.75775,3.43836 -41.40238,-0.8138 -3.821986,-1.28529 -6.716926,-3.77057 -10.277189,-5.42764 z" /></g></svg>
