<?xml version="1.0" encoding="UTF-8" standalone="no"?>
<!-- Created with Inkscape (http://www.inkscape.org/) -->

<svg
   width="100mm"
   height="100mm"
   viewBox="0 0 100 100"
   version="1.1"
   id="svg1"
   xml:space="preserve"
   inkscape:version="1.4.2 (f4327f4, 2025-05-13)"
   sodipodi:docname="gordoIcon.svg"
   xmlns:inkscape="http://www.inkscape.org/namespaces/inkscape"
   xmlns:sodipodi="http://sodipodi.sourceforge.net/DTD/sodipodi-0.dtd"
   xmlns="http://www.w3.org/2000/svg"
   xmlns:svg="http://www.w3.org/2000/svg"><sodipodi:namedview
     id="namedview1"
     pagecolor="#ffffff"
     bordercolor="#000000"
     borderopacity="0.25"
     inkscape:showpageshadow="2"
     inkscape:pageopacity="0.0"
     inkscape:pagecheckerboard="0"
     inkscape:deskcolor="#d1d1d1"
     inkscape:document-units="mm"
     inkscape:zoom="1"
     inkscape:cx="50.5"
     inkscape:cy="445.5"
     inkscape:window-width="1920"
     inkscape:window-height="1094"
     inkscape:window-x="-11"
     inkscape:window-y="-11"
     inkscape:window-maximized="1"
     inkscape:current-layer="layer1" /><defs
     id="defs1" /><g
     inkscape:label="Capa 1"
     inkscape:groupmode="layer"
     id="layer1"><path
       id="path3"
       style="fill:#014b5f;stroke:none;stroke-width:1.77801"
       d="M 48.370436,0.00524526 C 47.406654,0.02365676 46.424285,0.09106284 45.417357,0.2147343 40.377128,0.83380633 36.114315,2.9925199 31.376901,4.5460212 27.940899,5.6727602 24.46964,6.0629914 21.348004,8.0687535 14.555821,12.432962 11.894521,20.422055 11.891531,28.21282 c -6.48e-4,1.682324 -0.635074,5.02963 0.338125,6.467528 1.284318,1.897579 7.514124,2.539646 9.690771,2.9889 2.81603,-9.50548 2.057059,-20.464605 8.282224,-28.9279243 1.570254,-2.1348312 5.071673,-2.9426019 7.477339,-3.777242 8.17082,-2.8348741 15.34136,-3.0069145 23.496929,-0.1488481 3.027625,1.0610149 7.147317,2.1068046 8.79309,5.0599057 3.177127,5.7009157 4.779356,12.2727087 6.049502,18.6243497 0.410688,2.053649 0.205273,7.153271 1.497664,8.705759 0.534989,0.64268 1.619617,0.23147 2.284187,0.06982 1.956482,-0.475871 5.770049,-0.780988 7.277033,-2.166562 1.196232,-1.099875 0.459404,-5.362306 0.459404,-6.895695 0,-8.271079 -3.018226,-16.687491 -10.601309,-20.8276647 C 73.912966,5.7343737 70.691085,5.3279644 67.480015,4.281396 60.926069,2.1452898 55.11691,-0.12363044 48.370436,0.00524526 Z M 11.032435,37.669248 c -0.904239,3.796238 -0.573342,7.873572 -0.573342,11.74795 0,1.905656 -0.212511,4.252769 0.664306,6.015473 0.920837,1.851195 3.374575,3.298747 5.06636,4.386415 5.255841,3.379094 12.322584,5.76595 18.625357,5.331875 5.315005,-0.366041 9.479646,-4.472968 14.89955,-4.261457 4.193221,0.16363 7.50823,2.750832 11.462253,3.744165 6.107727,1.534368 13.052357,0.03154 18.624443,-2.683854 2.881763,-1.404357 7.384479,-3.826455 8.87485,-6.801977 1.345999,-2.687304 0.581628,-7.376621 0.581628,-10.315519 0,-1.46081 0.711495,-5.642176 -0.460329,-6.677936 -1.026491,-0.907324 -4.342605,0.531053 -5.557011,0.775478 -5.232023,1.053005 -10.450443,2.140066 -15.760485,2.736226 -19.360708,2.173692 -37.451783,-0.07614 -56.44758,-3.996839 z m 19.727939,11.023006 c 3.260748,-0.03929 6.839423,0.531241 9.497821,1.846816 2.723877,1.347971 1.933192,4.922422 -0.858177,5.602005 -3.654193,0.889659 -8.781136,-0.02635 -12.034676,-1.825683 -2.883535,-1.594669 -3.567815,-4.815692 0.285753,-5.385165 0.970581,-0.143432 2.022362,-0.224877 3.109279,-0.237973 z m 38.840269,0.158031 c 2.07351,0.02012 4.059613,0.314745 4.748453,1.286339 2.740553,3.865564 -6.466502,5.814611 -8.588197,6.075195 -2.018694,0.247956 -5.413256,0.587646 -7.131861,-0.692785 -4.802482,-3.578083 3.211333,-6.001136 5.699434,-6.306738 1.038009,-0.127483 3.19866,-0.382137 5.272171,-0.362011 z m 18.510498,10.881508 c -1.398827,1.387252 -2.850475,2.677531 -4.584896,3.635744 -0.956717,0.52855 -2.541485,0.916367 -3.143273,1.887244 -1.090017,1.758541 -0.300131,5.552441 -0.771804,7.658311 -1.030933,4.603036 -3.70545,8.804836 -6.769851,12.321287 C 61.3955,98.368588 38.465129,98.026183 26.817725,85.521045 23.513985,81.974024 20.81417,77.420331 19.859519,72.626421 c -0.394323,-1.980125 0.404788,-5.79684 -0.525564,-7.389097 -1.12975,-1.933536 -6.052699,-3.996949 -8.014848,-5.218862 0.01821,27.623006 28.512301,48.608708 54.441792,36.453007 10.735513,-5.032807 18.249538,-15.037439 21.096983,-26.424157 0.675829,-2.702589 2.362992,-7.665082 1.253259,-10.315519 z" /></g></svg>
