<?xml version="1.0" encoding="UTF-8" standalone="no"?>
<!-- Created with Inkscape (http://www.inkscape.org/) -->

<svg
   width="100mm"
   height="100mm"
   viewBox="0 0 100 100"
   version="1.1"
   id="svg1"
   xml:space="preserve"
   inkscape:version="1.4.2 (f4327f4, 2025-05-13)"
   sodipodi:docname="principalIcon.svg"
   xmlns:inkscape="http://www.inkscape.org/namespaces/inkscape"
   xmlns:sodipodi="http://sodipodi.sourceforge.net/DTD/sodipodi-0.dtd"
   xmlns="http://www.w3.org/2000/svg"
   xmlns:svg="http://www.w3.org/2000/svg"><sodipodi:namedview
     id="namedview1"
     pagecolor="#ffffff"
     bordercolor="#000000"
     borderopacity="0.25"
     inkscape:showpageshadow="2"
     inkscape:pageopacity="0.0"
     inkscape:pagecheckerboard="0"
     inkscape:deskcolor="#d1d1d1"
     inkscape:document-units="mm"
     inkscape:zoom="1"
     inkscape:cx="156.5"
     inkscape:cy="224.5"
     inkscape:window-width="1920"
     inkscape:window-height="1094"
     inkscape:window-x="-11"
     inkscape:window-y="-11"
     inkscape:window-maximized="1"
     inkscape:current-layer="layer1" /><defs
     id="defs1"><inkscape:path-effect
       effect="fillet_chamfer"
       id="path-effect99"
       is_visible="true"
       lpeversion="1"
       nodesatellites_param="F,0,0,1,0,0,0,1 @ F,0,0,1,0,0,0,1 @ F,0,0,1,0,0,0,1 @ F,0,0,1,0,0,0,1 @ F,0,0,1,0,0,0,1 @ F,0,0,1,0,0,0,1 @ F,0,0,1,0,0,0,1 @ F,0,0,1,0,0,0,1 @ F,0,0,1,0,0,0,1 @ F,0,0,1,0,0,0,1 | F,0,0,1,0,0,0,1 @ F,0,0,1,0,0,0,1 | F,0,0,1,0,0,0,1 @ F,0,0,1,0,0,0,1 | F,0,0,1,0,0,0,1 @ F,0,0,1,0,0,0,1 | F,0,0,1,0,0,0,1 @ F,0,0,1,0,0,0,1 | F,0,0,1,0,0,0,1 @ F,0,0,1,0,0,0,1 @ F,0,0,1,0,0,0,1 @ F,0,0,1,0,0,0,1 @ F,0,0,1,0,0,0,1 @ F,0,0,1,0,0,0,1 @ F,0,0,1,0,0,0,1 @ F,0,0,1,0,0,0,1 | F,0,0,1,0,0,0,1 @ F,0,0,1,0,0,0,1 | F,0,0,1,0,0,0,1 @ F,0,0,1,0,0,0,1 | F,0,0,1,0,0,0,1 @ F,0,0,1,0,0,0,1 | F,0,0,1,0,0,0,1 @ F,0,0,1,0,0,0,1"
       radius="0"
       unit="px"
       method="auto"
       mode="F"
       chamfer_steps="1"
       flexible="false"
       use_knot_distance="true"
       apply_no_radius="true"
       apply_with_radius="true"
       only_selected="false"
       hide_knots="false" /><inkscape:path-effect
       effect="fillet_chamfer"
       id="path-effect99-1"
       is_visible="true"
       lpeversion="1"
       nodesatellites_param="F,0,0,1,0,0,0,1 @ F,0,0,1,0,0,0,1 @ F,0,0,1,0,0,0,1 @ F,0,0,1,0,0,0,1 @ F,0,0,1,0,0,0,1 @ F,0,0,1,0,0,0,1 @ F,0,0,1,0,0,0,1 @ F,0,0,1,0,0,0,1 @ F,0,0,1,0,0,0,1 @ F,0,0,1,0,0,0,1 | F,0,0,1,0,0,0,1 @ F,0,0,1,0,0,0,1 | F,0,0,1,0,0,0,1 @ F,0,0,1,0,0,0,1 | F,0,0,1,0,0,0,1 @ F,0,0,1,0,0,0,1 | F,0,0,1,0,0,0,1 @ F,0,0,1,0,0,0,1 | F,0,0,1,0,0,0,1 @ F,0,0,1,0,0,0,1 @ F,0,0,1,0,0,0,1 @ F,0,0,1,0,0,0,1 @ F,0,0,1,0,0,0,1 @ F,0,0,1,0,0,0,1 @ F,0,0,1,0,0,0,1 @ F,0,0,1,0,0,0,1 | F,0,0,1,0,0,0,1 @ F,0,0,1,0,0,0,1 | F,0,0,1,0,0,0,1 @ F,0,0,1,0,0,0,1 | F,0,0,1,0,0,0,1 @ F,0,0,1,0,0,0,1 | F,0,0,1,0,0,0,1 @ F,0,0,1,0,0,0,1"
       radius="0"
       unit="px"
       method="auto"
       mode="F"
       chamfer_steps="1"
       flexible="false"
       use_knot_distance="true"
       apply_no_radius="true"
       apply_with_radius="true"
       only_selected="false"
       hide_knots="false" /></defs><g
     inkscape:label="Capa 1"
     inkscape:groupmode="layer"
     id="layer1"><path
       id="path1"
       style="fill:#214f5f;stroke-width:0.242799"
       d="M 50.070541,3.4395836 A 59.54894,46.272456 0 0 0 48.354542,3.4586479 33.749006,23.567264 72.193909 0 0 43.591695,4.5523103 23.567264,33.749006 17.806091 0 0 34.385556,10.234932 12.058983,32.24344 31.833422 0 0 21.748948,23.45803 12.058983,32.24344 31.833422 0 0 10.50878,45.447973 41.259245,39.57819 0 0 0 10.458435,45.60737 50.000083,31.531715 0 0 0 0,64.892899 50.000083,31.531715 0 0 0 12.366624,85.528347 59.54894,46.272456 0 0 0 50.070531,95.984497 59.54894,46.272456 0 0 0 86.853905,86.101116 66.298399,32.118403 0 0 0 86.8341,86.094638 50.000083,31.531715 0 0 0 100,64.892524 50.000083,31.531715 0 0 0 89.83672,45.850285 l -0.0236,0.0099 -8.44117,-18.052333 A 32.24344,12.058983 58.166578 0 0 81.371106,27.807515 32.24344,12.058983 58.166578 0 0 78.441707,23.458033 32.24344,12.058983 58.166578 0 0 64.551275,9.3525299 33.749006,23.567264 72.193909 0 0 56.408293,4.5523131 23.567264,33.749006 17.806091 0 0 51.592058,3.4548369 59.54894,46.272456 0 0 0 50.070541,3.4395947 Z M 29.795072,52.113674 a 23.784771,11.785965 15 0 1 7.799782,1.372036 23.784771,11.785965 15 0 1 7.493191,2.73492 5.7387911,4.575629 15 0 1 -0.105243,1.086798 5.7387911,4.575629 15 0 1 -5.844307,3.107862 6.5238911,2.6285632 22.406925 0 1 -4.471509,-1.134846 6.5238911,2.6285632 22.406925 0 1 -4.402868,-3.158962 4.0991365,3.2683065 15 0 1 -0.979264,-3.020918 4.0991365,3.2683065 15 0 1 0.510224,-0.98689 z m 40.410607,0 a 3.2683065,4.0991365 75 0 1 0.509462,0.98689 3.2683065,4.0991365 75 0 1 -0.978502,3.020918 2.6285632,6.5238911 67.593075 0 1 -4.402868,3.158962 2.6285632,6.5238911 67.593075 0 1 -4.472272,1.134846 4.575629,5.7387911 75 0 1 -5.844308,-3.107862 4.575629,5.7387911 75 0 1 -0.105243,-1.086798 11.785965,23.784771 75 0 1 7.493193,-2.73492 11.785965,23.784771 75 0 1 7.800544,-1.372036 z m 7.141602,4.183221 a 27.53006,32.118403 0 0 1 0.18304,3.626475 27.53006,32.118403 0 0 1 -27.529945,32.11814 27.53006,32.118403 0 0 1 -27.530709,-32.11814 27.53006,32.118403 0 0 1 0.21736,-3.540294 c 1.563532,3.988986 5.694491,7.65867 11.216525,9.418923 6.192667,1.966041 11.209295,-2.406881 16.096824,-2.406973 4.88754,-9.1e-5 9.903549,4.372868 16.09606,2.406973 5.561834,-1.772935 9.713483,-5.482788 11.250845,-9.505104 z" /></g></svg>
