<?xml version="1.0" encoding="UTF-8" standalone="no"?>
<!-- Created with Inkscape (http://www.inkscape.org/) -->

<svg
   width="100mm"
   height="100mm"
   viewBox="0 0 100 100"
   version="1.1"
   id="svg1"
   xml:space="preserve"
   inkscape:version="1.4.2 (f4327f4, 2025-05-13)"
   sodipodi:docname="repartidorIcon.svg"
   xmlns:inkscape="http://www.inkscape.org/namespaces/inkscape"
   xmlns:sodipodi="http://sodipodi.sourceforge.net/DTD/sodipodi-0.dtd"
   xmlns="http://www.w3.org/2000/svg"
   xmlns:svg="http://www.w3.org/2000/svg"><sodipodi:namedview
     id="namedview1"
     pagecolor="#ffffff"
     bordercolor="#000000"
     borderopacity="0.25"
     inkscape:showpageshadow="2"
     inkscape:pageopacity="0.0"
     inkscape:pagecheckerboard="0"
     inkscape:deskcolor="#d1d1d1"
     inkscape:document-units="mm"
     showgrid="false"
     inkscape:zoom="0.72426347"
     inkscape:cx="231.26943"
     inkscape:cy="269.9294"
     inkscape:window-width="1920"
     inkscape:window-height="1094"
     inkscape:window-x="-11"
     inkscape:window-y="-11"
     inkscape:window-maximized="1"
     inkscape:current-layer="layer1" /><defs
     id="defs1" /><g
     inkscape:label="Capa 1"
     inkscape:groupmode="layer"
     id="layer1"><path
       style="fill:#034e66;stroke:none;stroke-width:0.488058"
       d="M 47.471764,2.3403169 C 41.062952,2.8461413 33.465478,2.869408 27.71458,6.1404396 18.934224,11.134591 18.193897,21.503716 17.494426,30.489182 c -0.236862,3.042734 -0.497795,6.11723 -0.497795,9.170257 16.379387,-7.058071 35.829251,-7.695778 53.202345,-4.440706 3.822839,0.716254 7.648132,1.610665 11.363607,2.765286 1.698958,0.527972 3.335113,1.318266 5.036145,1.804552 0,-3.113061 -0.314387,-6.202722 -0.623835,-9.297497 C 85.128244,22.023807 84.310533,11.592999 76.397308,6.5623096 72.072405,3.8128337 66.151339,3.2326859 61.159744,2.7496391 59.654013,2.6039247 57.691182,2.842169 56.260304,2.4134421 55.556047,2.2024363 55.830286,1.4612993 55.680204,0.92037045 55.516592,0.33068601 55.00033,0.05618561 54.444886,-0.08219929 c -1.502081,-0.3742333 -3.637255,-0.3440625 -5.165279,-0.1034379 -0.526321,0.082883 -1.243312,0.200886 -1.600794,0.6397959 -0.372105,0.45684834 -0.207049,1.33369069 -0.207049,1.88615819 m 2.066109,12.7840591 0.12913,5.552672 h 5.681805 v -5.552672 h 2.58264 l 0.12913,4.648749 v 9.555761 h -2.71177 v -4.390485 l -0.207049,-1.600797 -1.471665,-0.20705 h -4.003091 v 4.132222 c 0,0.504114 0.149629,1.304363 -0.07792,1.766799 -0.2489,0.505832 -2.436159,0.505832 -2.685064,0 -0.462766,-0.940462 -0.07792,-2.91625 -0.07792,-3.962042 v -9.814025 l 2.71177,-0.129132 m 14.204506,0 0.129135,3.873957 v 7.747915 h 3.228296 c 0.98249,0 2.819002,-0.357446 3.703777,0.07792 0.470814,0.231672 0.484568,2.061287 0.09226,2.372003 -0.419275,0.332075 -1.480815,0.132718 -1.98819,0.132718 h -5.55267 c -0.5327,0 -1.678718,0.214663 -2.117321,-0.132718 -0.562086,-0.445176 -0.207053,-2.677264 -0.207053,-3.353843 v -7.102259 c 0,-1.149387 -0.197654,-2.510175 0.129135,-3.615693 h 2.582635 m -31.249918,0.129132 c 2.385537,0 5.161858,-0.3885 7.489649,0.159617 4.622632,1.088463 5.863509,8.084317 3.259185,11.591387 -1.517835,2.043971 -3.84871,2.324217 -6.229216,2.324374 H 33.78378 c -0.337912,-1.5e-4 -0.917961,0.09679 -1.158601,-0.207049 -0.522266,-0.659413 -0.132718,-2.839105 -0.132718,-3.666908 V 15.253508 m 2.8409,2.582638 v 8.910102 c 1.534799,0 3.712161,0.368141 5.030966,-0.600325 1.990499,-1.461726 1.81676,-6.26084 -0.129135,-7.689922 -1.319806,-0.969277 -3.36385,-0.619855 -4.901831,-0.619855 M 20.870589,42.500341 c 0.280817,1.451276 1.813967,2.201753 3.099166,2.625184 3.192216,1.051734 6.437636,0.457612 9.684893,0.09306 4.088736,-0.459015 8.168669,-0.770393 12.267533,-1.051088 2.539359,-0.1739 5.063562,-0.611777 7.618778,-0.49989 2.303251,0.100853 4.563339,0.691712 6.843993,0.991606 2.821432,0.371002 5.686311,0.494783 8.522707,0.69358 3.949333,0.276802 10.345162,1.671124 13.256148,-1.94903 1.145037,-1.42399 -2.314623,-2.008307 -3.312994,-2.363632 -4.062104,-1.445728 -8.304345,-2.422926 -12.525794,-3.266067 -11.085341,-2.214048 -22.464359,-1.765853 -33.445163,0.837371 -4.128654,0.978783 -8.006501,2.53475 -12.009267,3.888901 m -10.201422,36.67346 h 0.258264 c 1.116671,-1.692926 2.037601,-3.575286 3.744825,-4.777879 0.328917,4.133023 1.227676,8.12062 0.272812,12.267533 -0.600469,2.607795 -2.263763,4.734042 -2.984582,7.231379 5.451711,-0.433859 9.821376,-4.094271 11.880137,-9.039227 6.761565,9.404267 19.110585,15.505428 30.733393,14.709477 4.432871,-0.30358 8.613983,-1.87648 12.525794,-3.89579 3.191814,-1.64763 6.067606,-3.969084 8.614969,-6.477998 0.8619,-0.848908 1.686893,-1.738359 2.473437,-2.656976 0.277109,-0.323631 0.641908,-1.008464 1.071521,-1.135486 0.63959,-0.189107 1.811216,1.614593 2.195635,2.039408 1.791884,1.980235 4.1035,3.770523 6.563809,4.832185 0.466983,0.201519 2.548705,1.344238 2.93346,0.769813 0.263493,-0.393389 -0.25399,-1.225034 -0.402335,-1.598906 -0.550641,-1.387728 -1.06951,-2.795286 -1.36844,-4.261353 -0.889032,-4.360048 -0.518737,-9.001837 -0.517024,-13.429721 4.29e-4,-1.116041 0.251442,-2.244787 0.12913,-3.357426 1.296061,1.220681 1.406577,3.8765 1.420453,5.552671 2.421205,-0.936422 3.593798,-4.170028 3.33501,-6.585728 -0.282917,-2.640929 -2.272811,-4.620232 -3.279811,-6.973124 -1.362252,-3.182945 -1.682349,-6.546277 -2.08444,-9.943154 -0.249046,-2.103894 -0.30283,-4.257121 -0.79672,-6.327462 -0.217367,-0.911185 -0.51861,-1.96861 -1.435495,-2.412359 -1.377899,-0.66686 -2.786648,1.72282 -3.744725,2.42172 -2.331012,1.700427 -5.367833,1.830899 -8.13531,1.797985 -4.382777,-0.05212 -8.948391,-0.527805 -13.300586,-1.069325 -2.402268,-0.298901 -4.811482,-0.885244 -7.231389,-0.991206 -2.091722,-0.09159 -4.122231,0.22845 -6.19833,0.370758 -5.490429,0.376356 -10.921105,0.989386 -16.399751,1.539314 -3.252482,0.326482 -6.690466,0.246118 -9.555761,-1.536224 -1.186514,-0.738061 -2.673053,-3.35597 -4.249697,-2.281828 -2.561301,1.744974 -1.780579,6.382224 -1.960194,9.005153 -0.277405,4.050947 -0.614677,8.154257 -2.015196,12.009268 -0.60885,1.675902 -1.649385,3.12907 -2.305642,4.77788 -1.1207396,2.815804 -1.4380996,6.601209 -0.187221,9.426628 M 45.27652,57.092248 c -4.624717,3.119918 -11.129423,4.96666 -14.849673,-0.645661 -0.548421,-0.827336 -1.061201,-1.740863 -1.291816,-2.71177 5.189963,-1.071243 12.534396,-1.657024 16.141489,3.357431 m 29.054679,-3.357431 c -0.246474,1.037674 -0.816437,1.975198 -1.425133,2.8409 -0.547654,0.778887 -1.157107,1.454051 -1.932298,2.010808 -4.41149,3.168411 -8.681482,0.78115 -12.78406,-1.494277 3.745979,-4.631159 10.921642,-4.827749 16.141491,-3.357431 m -54.235401,8.780972 c 6.122483,4.130334 13.456303,5.596469 20.661103,3.888901 3.458576,-0.819702 7.043091,-2.953554 10.588819,-3.109029 2.311895,-0.10137 4.344196,0.877035 6.456592,1.667156 2.343053,0.87639 4.746878,1.572302 7.231389,1.906987 4.607015,0.62061 9.261748,0.14164 13.558851,-1.697449 1.625979,-0.695888 3.044743,-1.852726 4.648749,-2.527436 0,16.24205 -13.19842,31.787 -29.700342,32.91708 -4.86218,0.33297 -10.099102,-1.12727 -14.462771,-3.188445 -8.682521,-4.101168 -15.668286,-12.361953 -17.997559,-21.722455 -0.455662,-1.831153 -0.669241,-3.685328 -0.892566,-5.552675 -0.08819,-0.737377 -0.361431,-1.893039 -0.09227,-2.582635 z"
       id="path1" /></g></svg>
